<svg id="SvgjsSvg1013" width="288" height="288" xmlns="http://www.w3.org/2000/svg" version="1.1" xmlns:xlink="http://www.w3.org/1999/xlink" xmlns:svgjs="http://svgjs.com/svgjs"><defs id="SvgjsDefs1014"></defs><g id="SvgjsG1015"><svg xmlns="http://www.w3.org/2000/svg" viewBox="0 0 25.4 25.4" width="288" height="288"><path fill-rule="evenodd" d="M 12 6 C 8.7105946 6 6 8.7105946 6 12 L 6 84 C 6 87.289406 8.7105954 90 12 90 L 68 90 C 71.289402 90 74 87.289406 74 84 L 74 56.828125 L 89.416016 41.412109 A 2.0002 2.0002 0 0 0 89.416016 38.585938 L 81.414062 30.583984 A 2.0002 2.0002 0 0 0 79.96875 30 A 2.0002 2.0002 0 0 0 78.587891 30.583984 L 74 35.171875 L 74 12 C 74 8.7105935 71.289402 6 68 6 L 12 6 z M 12 10 L 68 10 C 69.142589 10 70 10.857407 70 12 L 70 39.171875 L 46.587891 62.583984 A 2.0002 2.0002 0 0 0 46.099609 63.365234 L 42.105469 75.369141 A 2.0002 2.0002 0 0 0 44.630859 77.894531 L 56.634766 73.900391 A 2.0002 2.0002 0 0 0 57.416016 73.412109 L 70 60.828125 L 70 84 C 70 85.142593 69.142593 86 68 86 L 12 86 C 10.857405 86 10 85.142597 10 84 L 10 12 C 10 10.857406 10.857406 10 12 10 z M 51.96875 17.996094 A 2.0002 2.0002 0 0 0 50.587891 18.587891 L 42.585938 26.582031 A 2.0018589 2.0018589 0 1 0 45.414062 29.416016 L 49.998047 24.832031 L 49.998047 34.001953 C 49.998047 38.468543 46.470503 42.003906 42.003906 42.003906 L 34.001953 42.003906 C 27.388547 42.003906 21.998047 47.384644 21.998047 53.998047 L 21.998047 66.355469 C 19.678736 67.188256 17.996094 69.414524 17.996094 72.003906 C 17.996091 75.293928 20.708026 77.996094 23.998047 77.996094 C 27.288068 77.996094 30.000002 75.293928 30 72.003906 C 29.999999 69.414524 28.317358 67.188256 25.998047 66.355469 L 25.998047 53.998047 C 25.998047 49.531458 29.535358 45.996094 34.001953 45.996094 L 42.003906 45.996094 C 48.617312 45.996094 53.998047 40.615356 53.998047 34.001953 L 53.998047 24.832031 L 58.582031 29.416016 A 2.0046206 2.0046206 0 0 0 61.417969 26.582031 L 53.416016 18.587891 A 2.0002 2.0002 0 0 0 51.96875 17.996094 z M 23.976562 21.982422 A 2.0002 2.0002 0 0 0 22.587891 25.416016 L 25.171875 28 L 22.587891 30.583984 A 2.0018592 2.0018592 0 0 0 25.416016 33.417969 L 28 30.833984 L 30.583984 33.417969 A 2.0043973 2.0043973 0 1 0 33.417969 30.583984 L 30.833984 28 L 33.417969 25.416016 A 2.0002 2.0002 0 0 0 31.962891 21.982422 A 2.0002 2.0002 0 0 0 30.583984 22.587891 L 28 25.171875 L 25.416016 22.587891 A 2.0002 2.0002 0 0 0 23.976562 21.982422 z M 79.998047 34.828125 L 85.171875 40.001953 L 82.001953 43.171875 L 76.828125 37.998047 L 79.998047 34.828125 z M 74 40.826172 L 79.173828 46 L 56.001953 69.171875 L 50.828125 63.998047 L 74 40.826172 z M 48.875 67.697266 L 52.302734 71.125 L 47.162109 72.837891 L 48.875 67.697266 z M 23.998047 70.001953 C 25.126305 70.001953 25.998047 70.875649 25.998047 72.003906 C 25.998048 73.132167 25.126306 74.003906 23.998047 74.003906 C 22.869788 74.003906 21.998046 73.132167 21.998047 72.003906 C 21.998047 70.875649 22.869788 70.001953 23.998047 70.001953 z " color="#000" font-family="sans-serif" font-weight="400" overflow="visible" paint-order="stroke fill markers" transform="scale(.26458)" style="line-height:normal;font-variant-ligatures:normal;font-variant-position:normal;font-variant-caps:normal;font-variant-numeric:normal;font-variant-alternates:normal;font-feature-settings:normal;text-indent:0;text-align:start;text-decoration-line:none;text-decoration-style:solid;text-decoration-color:#000;text-transform:none;text-orientation:mixed;shape-padding:0;isolation:auto;mix-blend-mode:normal" fill="#ffffff" class="color000 svgShape"></path></svg></g></svg>