<svg width="14" height="16" viewBox="0 0 14 16" fill="none" xmlns="http://www.w3.org/2000/svg">
<g clip-path="url(#clip0_14_76)">
<path d="M5.95312 1.91406L6.64687 1.22031C6.94062 0.926563 7.41563 0.926563 7.70625 1.22031L13.7812 7.29219C14.075 7.58594 14.075 8.06094 13.7812 8.35156L7.70625 14.4266C7.4125 14.7203 6.9375 14.7203 6.64687 14.4266L5.95312 13.7328C5.65625 13.4359 5.6625 12.9516 5.96562 12.6609L9.73125 9.07344H0.75C0.334375 9.07344 0 8.73906 0 8.32344V7.32344C0 6.90781 0.334375 6.57344 0.75 6.57344H9.73125L5.96562 2.98594C5.65937 2.69531 5.65312 2.21094 5.95312 1.91406Z" fill="#2CA4F2"/>
</g>
<defs>
<clipPath id="clip0_14_76">
<rect width="14" height="16" fill="white"/>
</clipPath>
</defs>
</svg>
