<svg width="40" height="24" viewBox="0 0 40 24" fill="none" xmlns="http://www.w3.org/2000/svg">
<path d="M38.8959 5.57516L21.4622 0.218906C20.5122 -0.0729688 19.4872 -0.0729688 18.5378 0.218906L1.10344 5.57516C-0.367813 6.02703 -0.367813 7.97266 1.10344 8.42453L4.14281 9.35828C3.47594 10.1827 3.06594 11.1883 3.02531 12.2895C2.42344 12.6345 1.99969 13.257 1.99969 14.0002C1.99969 14.6739 2.35469 15.2408 2.86594 15.6033L1.27031 22.7833C1.13156 23.4077 1.60656 24.0002 2.24594 24.0002H5.75281C6.39281 24.0002 6.86781 23.4077 6.72906 22.7833L5.13344 15.6033C5.64469 15.2408 5.99969 14.6739 5.99969 14.0002C5.99969 13.277 5.59531 12.672 5.02094 12.3208C5.06844 11.382 5.54844 10.552 6.31406 10.0258L18.5372 13.7814C19.1034 13.9552 20.1897 14.172 21.4616 13.7814L38.8959 8.42516C40.3678 7.97266 40.3678 6.02766 38.8959 5.57516ZM22.0491 15.6933C20.2659 16.2408 18.7466 15.9383 17.9497 15.6933L8.88594 12.9089L7.99969 20.0002C7.99969 22.2095 13.3722 24.0002 19.9997 24.0002C26.6272 24.0002 31.9997 22.2095 31.9997 20.0002L31.1134 12.9083L22.0491 15.6933Z" fill="white"/>
</svg>
