<svg id="SvgjsSvg1018" width="288" height="288" xmlns="http://www.w3.org/2000/svg" version="1.1" xmlns:xlink="http://www.w3.org/1999/xlink" data-svgjs="http://svgjs.com/svgjs"><defs id="SvgjsDefs1019"></defs><g id="SvgjsG1020"><svg xmlns="http://www.w3.org/2000/svg" viewBox="0 0 64 64" width="288" height="288"><path d="M59.8 4.2H4.2c-1.1 0-2 .9-2 2s.9 2 2 2h55.7c1.1 0 2-.9 2-2-.1-1.1-1-2-2.1-2zM5.5 43.8c0 1.2 1 2.3 2.3 2.3h22l-.2.3-10.5 15.1c-.5.7-.3 1.7.4 2.2.3.2.6.3.9.3.5 0 1-.3 1.3-.7l8.7-12.5v8.7c0 .9.7 1.6 1.6 1.6.9 0 1.6-.7 1.6-1.6v-8.7l8.7 12.5c.3.4.8.7 1.3.7.3 0 .6-.1.9-.3.7-.5.9-1.5.4-2.2L34.4 46.4l-.2-.3h22c1.2 0 2.3-1 2.3-2.3V9.6h-53v34.2zm39.7-9.5c2 0 3.6 1.6 3.6 3.6s-1.6 3.6-3.6 3.6-3.6-1.6-3.6-3.6c.1-2 1.7-3.6 3.6-3.6zM32.9 15.5c-.1-.1-.2-.3-.2-.5s.1-.4.2-.5c.1-.1.3-.2.5-.2s.4.1.5.2l2.4 2.4 2.4-2.4c.1-.1.3-.2.5-.2s.4.1.5.2c.1.1.2.3.2.5s-.1.4-.2.5l-2.4 2.4 2.4 2.4c.1.1.2.3.2.5s-.1.4-.2.5c-.1.1-.3.2-.5.2s-.4-.1-.5-.2l-2.4-2.4-2.4 2.4c-.1.1-.3.2-.5.2s-.4-.1-.5-.2c-.1-.1-.2-.3-.2-.5s.1-.4.2-.5l2.4-2.4-2.4-2.4zm-16.3 1.4c.1-.2.2-.3.3-.4.1-.1.2-.1.3-.1.3 0 .5.1.6.4.6 1 6 10.2 17.7 15.8l.7.4-1.3-2.8c-.2-.4 0-.8.4-.9.1 0 .2-.1.3-.1.3 0 .5.2.6.4l2 4.5v.4l-.1.1v.1s0 .1-.1.1c-.1.1-.2.2-.4.3l-4.5 1.7h-.2c-.3 0-.6-.2-.7-.5-.1-.4 0-.8.4-.9l2.9-1.1-.7-.3c-12.4-5.8-17.9-15.4-18.5-16.5.3-.2.3-.4.3-.6zm-1.2 16c-.1-.1-.2-.3-.2-.5s.1-.4.2-.5c.1-.1.3-.2.5-.2s.4.1.5.2l2.4 2.4 2.4-2.4c.1-.1.3-.2.5-.2s.4.1.5.2c.1.1.2.3.2.5s-.1.4-.2.5l-2.4 2.4 2.4 2.4c.1.1.2.3.2.5s-.1.4-.2.5c-.1.1-.3.2-.5.2s-.4-.1-.5-.2l-2.4-2.4-2.4 2.4c-.1.1-.3.2-.5.2s-.4-.1-.5-.2c-.1-.1-.2-.3-.2-.5s.1-.4.2-.5l2.4-2.4-2.4-2.4zM34.5 2.5C34.3 1.1 33.3 0 32 0s-2.3 1.1-2.5 2.5v.3h5v-.3z" fill="#ffffff" class="color000 svgShape"></path><path d="M45.2 40c1.2 0 2.2-1 2.2-2.2 0-1.2-1-2.2-2.2-2.2-1.2 0-2.2 1-2.2 2.2.1 1.3 1 2.2 2.2 2.2z" fill="#ffffff" class="color000 svgShape"></path></svg></g></svg>