<svg width="32" height="23" viewBox="0 0 32 23" fill="none" xmlns="http://www.w3.org/2000/svg">
<path d="M26.88 9.73C27.085 9.195 27.2 8.61 27.2 8C27.2 5.35 25.05 3.2 22.4 3.2C21.415 3.2 20.495 3.5 19.735 4.01C18.35 1.61 15.765 0 12.8 0C8.38 0 4.8 3.58 4.8 8C4.8 8.135 4.805 8.27 4.81 8.405C2.01 9.39 0 12.06 0 15.2C0 19.175 3.225 22.4 7.2 22.4H25.6C29.135 22.4 32 19.535 32 16C32 12.905 29.8 10.32 26.88 9.73ZM19.67 12.8H16.4V18.4C16.4 18.84 16.04 19.2 15.6 19.2H13.2C12.76 19.2 12.4 18.84 12.4 18.4V12.8H9.13C8.415 12.8 8.06 11.94 8.565 11.435L13.835 6.165C14.145 5.855 14.655 5.855 14.965 6.165L20.235 11.435C20.74 11.94 20.38 12.8 19.67 12.8Z" fill="white"/>
</svg>
